<svg width="800" height="478" viewBox="0 0 800 478" fill="none" xmlns="http://www.w3.org/2000/svg">
<path d="M165.276 92.0912L57.5093 223.494V92.0912H0V365.691H57.5093V229.634L161.925 365.691H235.444L124.514 225.728L234.328 92.0912H165.276Z" fill="#92BF00"/>
<path fill-rule="evenodd" clip-rule="evenodd" d="M100.714 85.9019C100.714 85.9019 102.733 -0.500412 12.2852 0.00224304C12.2852 0.00224304 18.3503 79.8389 100.714 85.9019Z" fill="#92BF00"/>
<path fill-rule="evenodd" clip-rule="evenodd" d="M111.832 85.9019C111.832 85.9019 110.583 32.5069 166.476 32.8213C166.476 32.8213 162.73 82.1552 111.832 85.9019Z" fill="#92BF00"/>
<path d="M650.544 147.548L610.53 252.892H692.048L650.544 147.548ZM622.253 93.1984H683.301L800 366.799H735.976L710.848 301.656H591.914L567.532 366.799H506.486L622.253 93.1984Z" fill="#0AA1F4"/>
<path d="M398.737 317.301C411.888 317.301 421.443 314.726 427.4 309.577C433.359 304.429 436.335 296.335 436.335 285.288C436.335 274.121 433.323 265.932 427.307 260.722C421.286 255.509 411.767 252.905 398.737 252.905H313.679V317.301H398.737ZM313.679 141.228V204.51H397.807C410.837 204.51 420.389 201.937 426.472 196.789C432.551 191.64 435.589 183.664 435.589 172.871C435.589 161.952 432.551 153.949 426.472 148.861C420.389 143.774 410.837 141.228 397.807 141.228H313.679ZM406.742 365.691H256.17V92.0934H396.689C414.433 92.0934 428.857 93.0877 439.967 95.0717C451.065 97.058 460.033 100.222 466.86 104.565C476.911 110.891 484.568 119.082 489.843 129.131C495.115 139.18 497.753 150.599 497.753 163.378C497.753 178.64 494.464 191.576 487.89 202.185C481.311 212.794 471.014 221.698 456.993 228.892C471.136 234.849 481.592 242.885 488.353 252.996C495.115 263.111 498.499 275.797 498.499 291.058C498.499 316.619 491.056 335.448 476.165 347.547C461.275 359.646 438.133 365.691 406.742 365.691Z" fill="#FFCB00"/>
<path d="M221.714 470.774C228.503 470.774 231.444 467.935 231.444 460.537V421.62C231.444 414.224 228.503 411.385 221.714 411.385C214.925 411.385 211.984 414.224 211.984 421.62V460.537C211.984 467.935 214.925 470.774 221.714 470.774ZM221.309 404.795H222.121C232.863 404.795 238.74 409.662 238.74 419.797V462.36C238.74 472.497 232.863 477.36 222.121 477.36H221.309C210.567 477.36 204.688 472.497 204.688 462.36V419.797C204.688 409.56 210.567 404.795 221.309 404.795Z" fill="#FDFAF2"/>
<path d="M466.935 430.336V421.012C466.935 414.222 464.2 411.284 457.816 411.284C451.428 411.284 448.693 414.222 448.693 421.012V425.976C448.693 430.742 450.316 432.161 455.079 434.796L465.212 440.37C470.686 443.41 474.333 447.159 474.333 453.14V462.564C474.333 472.899 468.762 477.358 458.015 477.358H457.816C447.07 477.358 441.496 473.001 441.496 462.564V450.808H448.693V460.941C448.693 467.631 451.428 470.875 457.913 470.875C464.401 470.875 467.138 467.631 467.138 460.941V455.268C467.138 450.505 465.314 448.68 460.449 445.943L450.517 440.469C444.335 437.024 441.496 434.085 441.496 427.903V419.391C441.496 409.457 447.984 404.796 457.714 404.796H457.913C467.646 404.796 474.131 409.457 474.131 419.391V430.336H466.935Z" fill="#FDFAF2"/>
<path d="M791.911 430.336V421.012C791.911 414.222 789.177 411.284 782.793 411.284C776.404 411.284 773.669 414.222 773.669 421.012V425.976C773.669 430.742 775.292 432.161 780.056 434.796L790.188 440.37C795.662 443.41 799.309 447.159 799.309 453.14V462.564C799.309 472.899 793.738 477.358 782.992 477.358H782.793C772.046 477.358 766.473 473.001 766.473 462.564V450.808H773.669V460.941C773.669 467.631 776.404 470.875 782.89 470.875C789.378 470.875 792.115 467.631 792.115 460.941V455.268C792.115 450.505 790.29 448.68 785.425 445.943L775.494 440.469C769.311 437.024 766.473 434.085 766.473 427.903V419.391C766.473 409.457 772.961 404.796 782.691 404.796H782.89C792.62 404.796 799.108 409.457 799.108 419.391V430.336H791.911Z" fill="#FDFAF2"/>
<path d="M28.6804 476.55L15.3035 439.962L7.29633 453.747V476.55H0V405.606H7.29633V442.093L27.1592 405.606H35.0644L19.761 432.161L36.2824 476.55H28.6804Z" fill="#FDFAF2"/>
<path d="M43.5723 476.55V405.606H72.2527V412.194H50.8708V437.329H69.1127V443.818H50.8708V469.963H72.5583V476.55H43.5723Z" fill="#FDFAF2"/>
<path d="M101.029 476.55H93.7332V449.59L78.4297 405.606H86.0316L97.3824 441.282L108.833 405.606H116.333L101.029 449.59V476.55Z" fill="#FDFAF2"/>
<path d="M335.508 476.55H327.605L312.908 405.606H320.408L331.759 464.187L343.11 405.606H350.203L335.508 476.55Z" fill="#FDFAF2"/>
<path d="M358.508 476.55V405.606H387.188V412.194H365.806V437.329H384.048V443.818H365.806V469.963H387.494V476.55H358.508Z" fill="#FDFAF2"/>
<path d="M560.465 476.55H553.167V449.59L537.863 405.606H545.467L556.814 441.282L568.266 405.606H575.769L560.465 449.59V476.55Z" fill="#FDFAF2"/>
<path d="M686.926 476.55V405.606H715.606V412.194H694.224V437.329H712.466V443.818H694.224V469.963H715.912V476.55H686.926Z" fill="#FDFAF2"/>
<path d="M267.416 412.195H258.195V469.964H267.416C274.205 469.964 277.146 467.127 277.146 459.729V422.43C277.146 415.032 274.205 412.195 267.416 412.195ZM284.442 420.608V461.551C284.442 471.687 278.563 476.552 267.821 476.552H250.896V405.608H267.821C278.563 405.608 284.442 410.47 284.442 420.608Z" fill="#FDFAF2"/>
<path d="M404.917 440.167H414.342C421.133 440.167 424.072 437.331 424.072 429.93V422.43C424.072 415.032 421.133 412.195 414.342 412.195H404.917V440.167ZM426.202 476.552L415.358 446.653H414.749H404.917V476.552H397.621V405.608H414.749C425.491 405.608 431.368 410.47 431.368 420.608V431.653C431.368 439.053 428.228 443.611 422.351 445.537L433.799 476.552H426.202Z" fill="#FDFAF2"/>
<path d="M648.521 440.167H657.946C664.735 440.167 667.673 437.331 667.673 429.93V422.43C667.673 415.032 664.735 412.195 657.946 412.195H648.521V440.167ZM669.803 476.552L658.962 446.653H658.351H648.521V476.552H641.223V405.608H658.351C669.095 405.608 674.972 410.47 674.972 420.608V431.653C674.972 439.053 671.83 443.611 665.955 445.537L677.403 476.552H669.803Z" fill="#FDFAF2"/>
<path d="M534.322 412.195H521.348V476.552H514.053V412.195H501.184V405.608H534.322V412.195Z" fill="#FDFAF2"/>
<path d="M184.928 405.608H192.226V476.552H184.928V405.608Z" fill="#FDFAF2"/>
<path d="M297 405.608H304.299V476.552H297V405.608Z" fill="#FDFAF2"/>
<path d="M485.68 405.608H492.976V476.552H485.68V405.608Z" fill="#FDFAF2"/>
<path d="M157.37 443.106H147.133V470.065H157.37C163.652 470.065 166.085 467.023 166.085 460.942V450.302C166.085 445.338 163.045 443.106 157.37 443.106ZM147.133 436.62H156.962C162.638 436.62 165.68 434.39 165.68 429.423V421.217C165.68 415.134 163.249 412.093 156.962 412.093H147.133V436.62ZM165.071 439.662C171.659 440.674 173.379 446.044 173.379 450.907V462.563C173.379 470.874 167.704 476.549 156.962 476.549H139.834V405.607H157.166C167.908 405.607 172.976 411.283 172.976 419.593V428.511C172.976 433.276 171.254 439.051 165.071 439.662Z" fill="#FDFAF2"/>
<path d="M620.657 452.633L613.256 415.742L605.86 452.633H620.657ZM621.872 459.017H604.642L601.097 476.55H594L609 405.609H617.716L632.917 476.55H625.417L621.872 459.017Z" fill="#FDFAF2"/>
<path d="M748.438 452.633L741.037 415.742L733.641 452.633H748.438ZM749.653 459.017H732.423L728.878 476.55H721.781L736.781 405.609H745.497L760.699 476.55H753.199L749.653 459.017Z" fill="#FDFAF2"/>
</svg>
